PathFileType	4	(X/Y/Z)	/home/nbianco/projects/addbio/data/HamnerRunning2013/Processed/subject02//results/MarkerData/run400.trc
DataRate	CameraRate	NumFrames	NumMarkers	Units	OrigDataRate	OrigDataStartFrame	OrigNumFrames
120.005	120.005	9	42	m	120.005	0	255
Frame#	Time	C7			CLAV			LACR			LASI			LCAL			LFAradius			LFAsuperior			LFAulna			LLEL			LMEL			LMT5			LPSI			LTB1			LTB2			LTB3			LTH1			LTH2			LTH3			LTOE			LUA1			LUA2			LUA3			RACR			RASI			RCAL			RFAradius			RFAsuperior			RFAulna			RLEL			RMEL			RMT5			RPSI			RTB1			RTB2			RTB3			RTH1			RTH2			RTH3			RTOE			RUA1			RUA2			RUA3		
		X1	Y1	Z1	X2	Y2	Z2	X3	Y3	Z3	X4	Y4	Z4	X5	Y5	Z5	X6	Y6	Z6	X7	Y7	Z7	X8	Y8	Z8	X9	Y9	Z9	X10	Y10	Z10	X11	Y11	Z11	X12	Y12	Z12	X13	Y13	Z13	X14	Y14	Z14	X15	Y15	Z15	X16	Y16	Z16	X17	Y17	Z17	X18	Y18	Z18	X19	Y19	Z19	X20	Y20	Z20	X21	Y21	Z21	X22	Y22	Z22	X23	Y23	Z23	X24	Y24	Z24	X25	Y25	Z25	X26	Y26	Z26	X27	Y27	Z27	X28	Y28	Z28	X29	Y29	Z29	X30	Y30	Z30	X31	Y31	Z31	X32	Y32	Z32	X33	Y33	Z33	X34	Y34	Z34	X35	Y35	Z35	X36	Y36	Z36	X37	Y37	Z37	X38	Y38	Z38	X39	Y39	Z39	X40	Y40	Z40	X41	Y41	Z41	X42	Y42	Z42

1	0.1	0.904434	1.58583	-0.30436	1.01823	1.50697	-0.240673	1.01942	1.56849	-0.44926	0.99141	1.0763	-0.443418	0.26216	0.473108	-0.30327	1.09368	1.29922	-0.39257	1.0165	1.25066	-0.549008	1.1222	1.23232	-0.408823	0.936053	1.23889	-0.607742	0.865759	1.23217	-0.550473	0.231159	0.309558	-0.384816	0.81389	1.13001	-0.358388	0.599101	0.479991	-0.368915	0.500714	0.480792	-0.409999	0.407696	0.416471	-0.338351	0.848985	0.878039	-0.485966	0.841494	0.744993	-0.464574	0.730136	0.675716	-0.438623	0.281976	0.240323	-0.310327	1.0191	1.48315	-0.528532	1.02352	1.41084	-0.522137	0.930145	1.40306	-0.552752	0.938178	1.56037	-0.123033	0.981201	1.08171	-0.187287	1.19953	0.107903	-0.29697	0.883737	1.21062	-0.0535701	0.72777	1.30109	-0.0132808	0.844563	1.17738	-0.00266855	0.643029	1.35803	-0.0416722	0.64837	1.34429	-0.123496	1.36831	0.117086	-0.214628	0.806656	1.11852	-0.272975	1.21451	0.459172	-0.265367	1.20698	0.387233	-0.198875	1.25252	0.297875	-0.270673	0.953401	0.908584	-0.130318	1.04709	0.822085	-0.133991	1.03217	0.702371	-0.184521	1.42318	0.181523	-0.294812	0.858145	1.5018	-0.0591616	0.815246	1.42188	-0.061049	0.74605	1.45851	-0.0797218
2	0.108333	0.905094	1.5822	-0.302583	1.01872	1.50218	-0.240636	1.01961	1.56424	-0.448607	0.991462	1.07393	-0.442774	0.269528	0.495358	-0.30366	1.09108	1.29094	-0.393043	1.01192	1.24567	-0.549479	1.11779	1.22353	-0.410139	0.930962	1.23645	-0.60801	0.861161	1.23048	-0.550522	0.229341	0.334623	-0.386404	0.813136	1.12567	-0.358736	0.607325	0.476921	-0.36892	0.509378	0.484426	-0.410328	0.411494	0.428267	-0.338332	0.85489	0.871796	-0.485398	0.849805	0.738276	-0.464136	0.740374	0.666263	-0.439508	0.275196	0.261959	-0.31153	1.01807	1.47916	-0.528395	1.02145	1.40677	-0.522385	0.927731	1.40057	-0.552443	0.939979	1.55479	-0.121791	0.979494	1.07979	-0.187448	1.18773	0.102199	-0.298596	0.892696	1.20288	-0.0504236	0.736327	1.29144	-0.00714179	0.855708	1.17064	0.00289158	0.649747	1.34645	-0.0346035	0.653973	1.33226	-0.116507	1.35611	0.108508	-0.215523	0.805838	1.11526	-0.273649	1.20833	0.453419	-0.266513	1.20157	0.382048	-0.200057	1.24384	0.291712	-0.272289	0.950729	0.905104	-0.129012	1.04527	0.819705	-0.133379	1.03049	0.699519	-0.184662	1.41321	0.172246	-0.293886	0.861659	1.49378	-0.0561602	0.820307	1.41276	-0.0583272	0.749759	1.44821	-0.0733265
3	0.116667	0.905583	1.57765	-0.300821	1.01924	1.49641	-0.240691	1.01966	1.55906	-0.447986	0.991301	1.07046	-0.442374	0.280597	0.516378	-0.304623	1.08844	1.28137	-0.393911	1.00697	1.23975	-0.550264	1.11312	1.21353	-0.412019	0.925448	1.23324	-0.608364	0.85625	1.22798	-0.550489	0.230988	0.358992	-0.388288	0.812215	1.11992	-0.359201	0.617304	0.473517	-0.369036	0.519952	0.487273	-0.411038	0.418093	0.439118	-0.339148	0.860492	0.864922	-0.485143	0.858624	0.730893	-0.464064	0.751395	0.656054	-0.440815	0.271686	0.283188	-0.31308	1.01645	1.47443	-0.52847	1.01894	1.40196	-0.522857	0.924977	1.3972	-0.552169	0.94204	1.54847	-0.120642	0.977747	1.07687	-0.187372	1.17144	0.0973823	-0.2994	0.902361	1.19428	-0.0472069	0.745728	1.28082	-0.000730948	0.867638	1.16293	0.00835491	0.657371	1.33389	-0.0269875	0.660188	1.31927	-0.108954	1.34012	0.097006	-0.217993	0.804732	1.11094	-0.27432	1.20083	0.44615	-0.267428	1.19404	0.375357	-0.200873	1.23255	0.283713	-0.27344	0.948662	0.902092	-0.128911	1.0447	0.818688	-0.134921	1.02874	0.696333	-0.184636	1.39881	0.159712	-0.295487	0.865713	1.485	-0.0532242	0.82596	1.40296	-0.0554141	0.754157	1.43703	-0.0666325
4	0.125	0.905884	1.5722	-0.299146	1.01975	1.48974	-0.240824	1.01958	1.553	-0.447469	0.990951	1.06588	-0.442197	0.294973	0.535776	-0.306081	1.08578	1.27055	-0.395171	1.00163	1.23294	-0.551354	1.10815	1.2023	-0.414359	0.91954	1.22929	-0.608765	0.850978	1.22474	-0.550367	0.236024	0.382111	-0.39032	0.811096	1.11284	-0.359809	0.62886	0.469923	-0.369184	0.532228	0.489167	-0.412058	0.427268	0.448851	-0.340649	0.865719	0.857334	-0.485082	0.867913	0.722928	-0.464334	0.763101	0.64526	-0.442554	0.271558	0.30361	-0.314953	1.01431	1.46894	-0.528725	1.01603	1.39643	-0.52351	0.921892	1.39296	-0.551896	0.944386	1.54142	-0.119567	0.976014	1.07301	-0.186968	1.15127	0.0942606	-0.299911	0.912713	1.18495	-0.0438951	0.755942	1.26928	0.00591234	0.880327	1.15425	0.0136363	0.6659	1.32039	-0.0188625	0.66693	1.30539	-0.100841	1.3204	0.083405	-0.221394	0.80324	1.10553	-0.274977	1.19236	0.437628	-0.268104	1.18431	0.367265	-0.201516	1.21909	0.274186	-0.274273	0.947339	0.899268	-0.129841	1.04492	0.818182	-0.138572	1.02661	0.692482	-0.184386	1.38052	0.143765	-0.299435	0.870273	1.47551	-0.0504046	0.832199	1.39252	-0.0522931	0.75929	1.42502	-0.0597074
5	0.133333	0.905967	1.56594	-0.297625	1.02027	1.48224	-0.240995	1.01937	1.5461	-0.447133	0.990418	1.0602	-0.442162	0.311998	0.553096	-0.307913	1.08309	1.25853	-0.396843	0.995905	1.22532	-0.552706	1.10285	1.18983	-0.417023	0.913294	1.22464	-0.609144	0.845286	1.22086	-0.550175	0.244323	0.403255	-0.392347	0.809676	1.10464	-0.360543	0.64172	0.466243	-0.369469	0.545967	0.48998	-0.413355	0.438696	0.457291	-0.342592	0.870555	0.8489	-0.484987	0.877513	0.714473	-0.464935	0.775297	0.634094	-0.444594	0.27495	0.322689	-0.31713	1.0118	1.46271	-0.529138	1.0128	1.39016	-0.524289	0.918496	1.38789	-0.551584	0.947048	1.53365	-0.118559	0.974261	1.06846	-0.186265	1.12801	0.0934298	-0.300989	0.923736	1.17502	-0.0405502	0.766954	1.25685	0.0127302	0.893726	1.14464	0.0185908	0.675332	1.30602	-0.0102771	0.674143	1.2907	-0.0921862	1.29698	0.0697671	-0.224773	0.801294	1.09911	-0.275641	1.18358	0.428728	-0.268803	1.17285	0.358438	-0.202587	1.20404	0.264078	-0.275543	0.94666	0.896149	-0.131182	1.04499	0.817077	-0.143448	1.02393	0.68786	-0.183959	1.35905	0.125207	-0.305006	0.875247	1.4654	-0.0477583	0.839019	1.38148	-0.0489311	0.765195	1.41228	-0.0526582
6	0.141667	0.905814	1.55907	-0.29625	1.02095	1.474	-0.241147	1.01908	1.5385	-0.447048	0.989644	1.05347	-0.442097	0.331084	0.568086	-0.310025	1.08038	1.24533	-0.398932	0.989848	1.21699	-0.554249	1.09717	1.17622	-0.419935	0.906787	1.21934	-0.609474	0.839206	1.21642	-0.549965	0.255763	0.421943	-0.394392	0.807772	1.09565	-0.361306	0.655698	0.462387	-0.370222	0.561075	0.489779	-0.414951	0.452147	0.464346	-0.344786	0.875128	0.839585	-0.484645	0.887142	0.705607	-0.46584	0.787788	0.622699	-0.446576	0.281916	0.339974	-0.319623	1.00907	1.45578	-0.529737	1.00933	1.38314	-0.525159	0.914814	1.38204	-0.551227	0.950006	1.52517	-0.117618	0.972231	1.06353	-0.185471	1.10213	0.0945374	-0.303075	0.935449	1.16451	-0.0373	0.778774	1.24359	0.0196641	0.907769	1.1341	0.0230589	0.685663	1.29085	-0.00128819	0.681927	1.27531	-0.0830548	1.27012	0.0588125	-0.227495	0.798787	1.09188	-0.276364	1.17503	0.420846	-0.270085	1.16086	0.350256	-0.204789	1.18777	0.254971	-0.278261	0.946037	0.892473	-0.132078	1.04392	0.81482	-0.147713	1.02088	0.682975	-0.183499	1.3348	0.106519	-0.311136	0.880494	1.45474	-0.0452742	0.846394	1.3699	-0.0453165	0.771831	1.39885	-0.0456029
7	0.15	0.905465	1.55189	-0.294928	1.02194	1.46517	-0.241269	1.01871	1.53038	-0.447319	0.988461	1.0458	-0.4418	0.35187	0.58071	-0.312397	1.07753	1.231	-0.401395	0.983577	1.20805	-0.55594	1.09106	1.16157	-0.423069	0.900095	1.21344	-0.609813	0.8329	1.21141	-0.549794	0.270247	0.437997	-0.396685	0.805174	1.08629	-0.361985	0.6708	0.4581	-0.371695	0.577633	0.488754	-0.416806	0.467556	0.469995	-0.347138	0.879637	0.829621	-0.483976	0.896515	0.696517	-0.466932	0.800484	0.611157	-0.447979	0.292395	0.355135	-0.322458	1.0062	1.44814	-0.530569	1.00572	1.37533	-0.5261	0.910883	1.37544	-0.550871	0.953115	1.51605	-0.116701	0.96948	1.05824	-0.184849	1.07388	0.0965856	-0.305802	0.94789	1.15342	-0.0342419	0.791401	1.22954	0.0266639	0.922377	1.12264	0.0269088	0.696879	1.27496	0.00801188	0.6905	1.25924	-0.0735753	1.24047	0.0524873	-0.229467	0.795469	1.08409	-0.277218	1.16675	0.415283	-0.272433	1.14956	0.344304	-0.208299	1.1704	0.248512	-0.282686	0.944549	0.888429	-0.131961	1.04122	0.811585	-0.149513	1.01777	0.678649	-0.183095	1.30788	0.0909743	-0.316838	0.885899	1.44351	-0.0428322	0.854223	1.35776	-0.041524	0.779057	1.38474	-0.0386228
8	0.158333	0.905083	1.54478	-0.293537	1.02324	1.45613	-0.241442	1.01816	1.52203	-0.448095	0.986615	1.0375	-0.441166	0.374138	0.591034	-0.315072	1.07441	1.21554	-0.404165	0.97719	1.19854	-0.55781	1.08443	1.14597	-0.426398	0.89326	1.20708	-0.610261	0.8266	1.20588	-0.549694	0.28769	0.45135	-0.399512	0.801755	1.07708	-0.362558	0.687217	0.453154	-0.373766	0.595811	0.487065	-0.418746	0.484971	0.47428	-0.349563	0.884169	0.8196	-0.483078	0.905499	0.687639	-0.468005	0.813458	0.599628	-0.448369	0.306234	0.367914	-0.32561	1.00328	1.43976	-0.531627	1.00194	1.36674	-0.527062	0.906752	1.36818	-0.550618	0.956081	1.50659	-0.115722	0.965629	1.05233	-0.184601	1.04365	0.0986434	-0.308332	0.961061	1.14171	-0.031427	0.804783	1.21475	0.0336888	0.93748	1.11026	0.0300777	0.708966	1.25841	0.0174743	0.700032	1.2425	-0.0638887	1.20898	0.0507401	-0.230888	0.791111	1.07601	-0.27831	1.1582	0.412448	-0.275783	1.1392	0.341416	-0.212444	1.15195	0.245434	-0.287783	0.941384	0.884441	-0.130929	1.03694	0.807872	-0.148214	1.0147	0.675338	-0.18275	1.27849	0.0807382	-0.321416	0.891463	1.43158	-0.0402456	0.862321	1.34507	-0.0377519	0.786695	1.36989	-0.0316907
9	0.166667	0.90493	1.53819	-0.292021	1.02466	1.44746	-0.241803	1.01723	1.51376	-0.449462	0.983873	1.02906	-0.440311	0.397625	0.599132	-0.318114	1.0708	1.19901	-0.407189	0.970666	1.18848	-0.559937	1.07719	1.12948	-0.429863	0.886289	1.20045	-0.610863	0.820473	1.19998	-0.549651	0.307964	0.461846	-0.403008	0.797577	1.06854	-0.363143	0.705212	0.447582	-0.375969	0.615737	0.484785	-0.42055	0.504431	0.477324	-0.351902	0.888636	0.810332	-0.482167	0.914262	0.679636	-0.468843	0.826946	0.588493	-0.447682	0.323209	0.378088	-0.328956	1.00035	1.43069	-0.53278	0.997931	1.35752	-0.527935	0.902477	1.36047	-0.550582	0.958536	1.49723	-0.114602	0.960673	1.0456	-0.184812	1.01212	0.100255	-0.31003	0.974875	1.12928	-0.0289353	0.81885	1.19919	0.04068	0.953045	1.09698	0.0325951	0.721964	1.24128	0.0268997	0.710524	1.22509	-0.0540887	1.17657	0.0516585	-0.231906	0.78583	1.06798	-0.279774	1.14857	0.411439	-0.27938	1.12871	0.340943	-0.216063	1.13238	0.244895	-0.291835	0.936287	0.880728	-0.129626	1.03147	0.80397	-0.144834	1.01128	0.672704	-0.182561	1.24726	0.0756097	-0.32449	0.897326	1.41883	-0.0374019	0.870506	1.33186	-0.0342735	0.794671	1.35433	-0.0246564
